<svg xmlns="http://www.w3.org/2000/svg" viewBox="0 0 64 64">
  <circle cx="32" cy="32" r="31.5" fill="#202122" stroke="#4c5155"/>
  <g fill="#f4f6f7">
    <rect x="13" y="22" width="13" height="2.6" rx="1.3" transform="rotate(-8 13 22)"/>
    <rect x="38" y="22" width="13" height="2.6" rx="1.3" transform="rotate(8 38 22)"/>
    <ellipse cx="17" cy="20.5" rx="6.3" ry="1.5"/>
    <ellipse cx="47" cy="20.5" rx="6.3" ry="1.5"/>
    <path d="M24 25.5c1.8-2.2 14.2-2.2 16 0l1.8 8.7c.4 2.1-1.2 3.8-3.3 3.8H25.5c-2.1 0-3.7-1.7-3.3-3.8Z"/>
    <path d="M26 36h2.7l-1.3 10.2h-2.3Z M35.3 36H38l1.3 10.2H37Z"/>
    <path d="M25.6 37.1 18.7 41l.9 1.7 8-3.3ZM38.4 37.1 45.3 41l-.9 1.7-8-3.3Z"/>
  </g>
  <circle cx="32" cy="30.8" r="1.8" fill="#202122"/>
</svg>
